<svg xmlns="http://www.w3.org/2000/svg" xmlns:xlink="http://www.w3.org/1999/xlink" contentStyleType="text/css" data-diagram-type="SEQUENCE" height="968px" preserveAspectRatio="none" style="width:1367px;height:968px;background:#FFFFFF;" version="1.1" viewBox="0 0 1367 968" width="1367px" zoomAndPan="magnify"><title>Charging Session Initiation</title><defs/><g><text fill="#000000" font-family="sans-serif" font-size="14" font-weight="bold" lengthAdjust="spacing" textLength="213.7666" x="573.0959" y="27.9951">Charging Session Initiation</text><rect fill="#ADD8E6" height="918.7813" style="stroke:#181818;stroke-width:0.5;" width="631.9912" x="652.814" y="43.2969"/><text fill="#000000" font-family="sans-serif" font-size="13" font-weight="bold" lengthAdjust="spacing" textLength="210.9961" x="863.3115" y="55.3638">Charge Management System</text><g><title>Driver</title><rect fill="#000000" fill-opacity="0.00000" height="758.0547" width="8" x="25.54" y="124.7266"/><line style="stroke:#181818;stroke-width:0.5;stroke-dasharray:5.0,5.0;" x1="29" x2="29" y1="124.7266" y2="882.7813"/></g><g><title>Mobile App</title><rect fill="#000000" fill-opacity="0.00000" height="758.0547" width="8" x="258.6201" y="124.7266"/><line style="stroke:#181818;stroke-width:0.5;stroke-dasharray:5.0,5.0;" x1="261.7578" x2="261.7578" y1="124.7266" y2="882.7813"/></g><g><title>Charging Station</title><rect fill="#000000" fill-opacity="0.00000" height="758.0547" width="8" x="380.3535" y="124.7266"/><line style="stroke:#181818;stroke-width:0.5;stroke-dasharray:5.0,5.0;" x1="383.4824" x2="383.4824" y1="124.7266" y2="882.7813"/></g><g><title>Charging Management</title><rect fill="#000000" fill-opacity="0.00000" height="758.0547" width="8" x="739.9106" y="124.7266"/><line style="stroke:#181818;stroke-width:0.5;stroke-dasharray:5.0,5.0;" x1="743.814" x2="743.814" y1="124.7266" y2="882.7813"/></g><g><title>Authentication Module</title><rect fill="#000000" fill-opacity="0.00000" height="758.0547" width="8" x="923.7329" y="124.7266"/><line style="stroke:#181818;stroke-width:0.5;stroke-dasharray:5.0,5.0;" x1="927.6685" x2="927.6685" y1="124.7266" y2="882.7813"/></g><g><title>Energy Management</title><rect fill="#000000" fill-opacity="0.00000" height="758.0547" width="8" x="1099.7642" y="124.7266"/><line style="stroke:#181818;stroke-width:0.5;stroke-dasharray:5.0,5.0;" x1="1102.7974" x2="1102.7974" y1="124.7266" y2="882.7813"/></g><g><title>Charger DB</title><rect fill="#000000" fill-opacity="0.00000" height="758.0547" width="8" x="1233.2681" y="124.7266"/><line style="stroke:#181818;stroke-width:0.5;stroke-dasharray:5.0,5.0;" x1="1236.731" x2="1236.731" y1="124.7266" y2="882.7813"/></g><g><title>Vehicle</title><rect fill="#000000" fill-opacity="0.00000" height="758.0547" width="8" x="1319.3818" y="124.7266"/><line style="stroke:#181818;stroke-width:0.5;stroke-dasharray:5.0,5.0;" x1="1322.8052" x2="1322.8052" y1="124.7266" y2="882.7813"/></g><g class="participant participant-head" data-participant="Driver"><text fill="#000000" font-family="sans-serif" font-size="14" lengthAdjust="spacing" textLength="43.0801" x="5" y="121.4248">Driver</text><ellipse cx="29.54" cy="56.9297" fill="#E2E2F0" rx="8" ry="8" style="stroke:#181818;stroke-width:0.5;"/><path d="M29.54,64.9297 L29.54,91.9297 M16.54,72.9297 L42.54,72.9297 M29.54,91.9297 L16.54,106.9297 M29.54,91.9297 L42.54,106.9297" fill="none" style="stroke:#181818;stroke-width:0.5;"/></g><g class="participant participant-tail" data-participant="Driver"><text fill="#000000" font-family="sans-serif" font-size="14" lengthAdjust="spacing" textLength="43.0801" x="5" y="894.7764">Driver</text><ellipse cx="29.54" cy="906.5781" fill="#E2E2F0" rx="8" ry="8" style="stroke:#181818;stroke-width:0.5;"/><path d="M29.54,914.5781 L29.54,941.5781 M16.54,922.5781 L42.54,922.5781 M29.54,941.5781 L16.54,956.5781 M29.54,941.5781 L42.54,956.5781" fill="none" style="stroke:#181818;stroke-width:0.5;"/></g><g class="participant participant-head" data-participant="App"><rect fill="#E2E2F0" height="30.2969" rx="2.5" ry="2.5" style="stroke:#181818;stroke-width:0.5;" width="91.7246" x="216.7578" y="93.4297"/><text fill="#000000" font-family="sans-serif" font-size="14" lengthAdjust="spacing" textLength="77.7246" x="223.7578" y="113.4248">Mobile App</text></g><g class="participant participant-tail" data-participant="App"><rect fill="#E2E2F0" height="30.2969" rx="2.5" ry="2.5" style="stroke:#181818;stroke-width:0.5;" width="91.7246" x="216.7578" y="881.7813"/><text fill="#000000" font-family="sans-serif" font-size="14" lengthAdjust="spacing" textLength="77.7246" x="223.7578" y="901.7764">Mobile App</text></g><g class="participant participant-head" data-participant="Charger"><rect fill="#E2E2F0" height="30.2969" rx="2.5" ry="2.5" style="stroke:#181818;stroke-width:0.5;" width="131.7422" x="318.4824" y="93.4297"/><text fill="#000000" font-family="sans-serif" font-size="14" lengthAdjust="spacing" textLength="117.7422" x="325.4824" y="113.4248">Charging Station</text></g><g class="participant participant-tail" data-participant="Charger"><rect fill="#E2E2F0" height="30.2969" rx="2.5" ry="2.5" style="stroke:#181818;stroke-width:0.5;" width="131.7422" x="318.4824" y="881.7813"/><text fill="#000000" font-family="sans-serif" font-size="14" lengthAdjust="spacing" textLength="117.7422" x="325.4824" y="901.7764">Charging Station</text></g><g class="participant participant-head" data-participant="CMS"><rect fill="#E2E2F0" height="30.2969" rx="2.5" ry="2.5" style="stroke:#181818;stroke-width:0.5;" width="174.1934" x="656.814" y="93.4297"/><text fill="#000000" font-family="sans-serif" font-size="14" lengthAdjust="spacing" textLength="160.1934" x="663.814" y="113.4248">Charging Management</text></g><g class="participant participant-tail" data-participant="CMS"><rect fill="#E2E2F0" height="30.2969" rx="2.5" ry="2.5" style="stroke:#181818;stroke-width:0.5;" width="174.1934" x="656.814" y="881.7813"/><text fill="#000000" font-family="sans-serif" font-size="14" lengthAdjust="spacing" textLength="160.1934" x="663.814" y="901.7764">Charging Management</text></g><g class="participant participant-head" data-participant="Auth"><rect fill="#E2E2F0" height="30.2969" rx="2.5" ry="2.5" style="stroke:#181818;stroke-width:0.5;" width="172.1289" x="841.6685" y="93.4297"/><text fill="#000000" font-family="sans-serif" font-size="14" lengthAdjust="spacing" textLength="158.1289" x="848.6685" y="113.4248">Authentication Module</text></g><g class="participant participant-tail" data-participant="Auth"><rect fill="#E2E2F0" height="30.2969" rx="2.5" ry="2.5" style="stroke:#181818;stroke-width:0.5;" width="172.1289" x="841.6685" y="881.7813"/><text fill="#000000" font-family="sans-serif" font-size="14" lengthAdjust="spacing" textLength="158.1289" x="848.6685" y="901.7764">Authentication Module</text></g><g class="participant participant-head" data-participant="Energy"><rect fill="#E2E2F0" height="30.2969" rx="2.5" ry="2.5" style="stroke:#181818;stroke-width:0.5;" width="159.9336" x="1023.7974" y="93.4297"/><text fill="#000000" font-family="sans-serif" font-size="14" lengthAdjust="spacing" textLength="145.9336" x="1030.7974" y="113.4248">Energy Management</text></g><g class="participant participant-tail" data-participant="Energy"><rect fill="#E2E2F0" height="30.2969" rx="2.5" ry="2.5" style="stroke:#181818;stroke-width:0.5;" width="159.9336" x="1023.7974" y="881.7813"/><text fill="#000000" font-family="sans-serif" font-size="14" lengthAdjust="spacing" textLength="145.9336" x="1030.7974" y="901.7764">Energy Management</text></g><g class="participant participant-head" data-participant="DB"><text fill="#000000" font-family="sans-serif" font-size="14" lengthAdjust="spacing" textLength="81.0742" x="1193.731" y="121.4248">Charger DB</text><path d="M1219.2681,72.4297 C1219.2681,62.4297 1237.2681,62.4297 1237.2681,62.4297 C1237.2681,62.4297 1255.2681,62.4297 1255.2681,72.4297 L1255.2681,98.4297 C1255.2681,108.4297 1237.2681,108.4297 1237.2681,108.4297 C1237.2681,108.4297 1219.2681,108.4297 1219.2681,98.4297 L1219.2681,72.4297" fill="#E2E2F0" style="stroke:#181818;stroke-width:1.5;"/><path d="M1219.2681,72.4297 C1219.2681,82.4297 1237.2681,82.4297 1237.2681,82.4297 C1237.2681,82.4297 1255.2681,82.4297 1255.2681,72.4297" fill="none" style="stroke:#181818;stroke-width:1.5;"/></g><g class="participant participant-tail" data-participant="DB"><text fill="#000000" font-family="sans-serif" font-size="14" lengthAdjust="spacing" textLength="81.0742" x="1193.731" y="894.7764">Charger DB</text><path d="M1219.2681,908.0781 C1219.2681,898.0781 1237.2681,898.0781 1237.2681,898.0781 C1237.2681,898.0781 1255.2681,898.0781 1255.2681,908.0781 L1255.2681,934.0781 C1255.2681,944.0781 1237.2681,944.0781 1237.2681,944.0781 C1237.2681,944.0781 1219.2681,944.0781 1219.2681,934.0781 L1219.2681,908.0781" fill="#E2E2F0" style="stroke:#181818;stroke-width:1.5;"/><path d="M1219.2681,908.0781 C1219.2681,918.0781 1237.2681,918.0781 1237.2681,918.0781 C1237.2681,918.0781 1255.2681,918.0781 1255.2681,908.0781" fill="none" style="stroke:#181818;stroke-width:1.5;"/></g><g class="participant participant-head" data-participant="Vehicle"><rect fill="#E2E2F0" height="30.2969" rx="2.5" ry="2.5" style="stroke:#181818;stroke-width:0.5;" width="65.1533" x="1290.8052" y="93.4297"/><text fill="#000000" font-family="sans-serif" font-size="14" lengthAdjust="spacing" textLength="51.1533" x="1297.8052" y="113.4248">Vehicle</text></g><g class="participant participant-tail" data-participant="Vehicle"><rect fill="#E2E2F0" height="30.2969" rx="2.5" ry="2.5" style="stroke:#181818;stroke-width:0.5;" width="65.1533" x="1290.8052" y="881.7813"/><text fill="#000000" font-family="sans-serif" font-size="14" lengthAdjust="spacing" textLength="51.1533" x="1297.8052" y="901.7764">Vehicle</text></g><rect fill="#EEEEEE" height="3" style="stroke:#EEEEEE;stroke-width:1;" width="1360.9585" x="0" y="155.293"/><line style="stroke:#000000;stroke-width:1;" x1="0" x2="1360.9585" y1="155.293" y2="155.293"/><line style="stroke:#000000;stroke-width:1;" x1="0" x2="1360.9585" y1="158.293" y2="158.293"/><rect fill="#EEEEEE" height="23.1328" style="stroke:#000000;stroke-width:2;" width="128.2705" x="616.344" y="144.7266"/><text fill="#000000" font-family="sans-serif" font-size="13" font-weight="bold" lengthAdjust="spacing" textLength="109.7446" x="622.344" y="160.7935">Vehicle Plug-in</text><g class="message" data-participant-1="Driver" data-participant-2="Charger"><polygon fill="#181818" points="372.3535,194.9922,382.3535,198.9922,372.3535,202.9922,376.3535,198.9922" style="stroke:#181818;stroke-width:1;"/><line style="stroke:#181818;stroke-width:1;" x1="29.54" x2="378.3535" y1="198.9922" y2="198.9922"/><text fill="#000000" font-family="sans-serif" font-size="13" font-weight="bold" lengthAdjust="spacing" textLength="9.0454" x="36.54" y="193.9263">1</text><text fill="#000000" font-family="sans-serif" font-size="13" lengthAdjust="spacing" textLength="78.3745" x="49.5854" y="193.9263">Plug vehicle</text></g><rect fill="#EEEEEE" height="3" style="stroke:#EEEEEE;stroke-width:1;" width="1360.9585" x="0" y="227.5586"/><line style="stroke:#000000;stroke-width:1;" x1="0" x2="1360.9585" y1="227.5586" y2="227.5586"/><line style="stroke:#000000;stroke-width:1;" x1="0" x2="1360.9585" y1="230.5586" y2="230.5586"/><rect fill="#EEEEEE" height="23.1328" style="stroke:#000000;stroke-width:2;" width="127.3882" x="616.7852" y="216.9922"/><text fill="#000000" font-family="sans-serif" font-size="13" font-weight="bold" lengthAdjust="spacing" textLength="108.8623" x="622.7852" y="233.0591">Authentication</text><g class="message" data-participant-1="Driver" data-participant-2="App"><polygon fill="#181818" points="250.6201,267.2578,260.6201,271.2578,250.6201,275.2578,254.6201,271.2578" style="stroke:#181818;stroke-width:1;"/><line style="stroke:#181818;stroke-width:1;" x1="29.54" x2="256.6201" y1="271.2578" y2="271.2578"/><text fill="#000000" font-family="sans-serif" font-size="13" font-weight="bold" lengthAdjust="spacing" textLength="9.0454" x="36.54" y="266.1919">2</text><text fill="#000000" font-family="sans-serif" font-size="13" lengthAdjust="spacing" textLength="106.6406" x="49.5854" y="266.1919">Initiate charging</text></g><g class="message" data-participant-1="App" data-participant-2="CMS"><polygon fill="#181818" points="731.9106,296.3906,741.9106,300.3906,731.9106,304.3906,735.9106,300.3906" style="stroke:#181818;stroke-width:1;"/><line style="stroke:#181818;stroke-width:1;" x1="262.6201" x2="737.9106" y1="300.3906" y2="300.3906"/><text fill="#000000" font-family="sans-serif" font-size="13" font-weight="bold" lengthAdjust="spacing" textLength="9.0454" x="269.6201" y="295.3247">3</text><text fill="#000000" font-family="sans-serif" font-size="13" lengthAdjust="spacing" textLength="400.4038" x="282.6655" y="295.3247">POST Authentication request {userID, chargerID, authToken}</text></g><g class="message" data-participant-1="CMS" data-participant-2="Auth"><polygon fill="#181818" points="915.7329,325.5234,925.7329,329.5234,915.7329,333.5234,919.7329,329.5234" style="stroke:#181818;stroke-width:1;"/><line style="stroke:#181818;stroke-width:1;" x1="743.9106" x2="921.7329" y1="329.5234" y2="329.5234"/><text fill="#000000" font-family="sans-serif" font-size="13" font-weight="bold" lengthAdjust="spacing" textLength="9.0454" x="750.9106" y="324.4575">4</text><text fill="#000000" font-family="sans-serif" font-size="13" lengthAdjust="spacing" textLength="146.7769" x="763.9561" y="324.4575">Verify user credentials</text></g><g class="message" data-participant-1="Auth" data-participant-2="CMS"><polygon fill="#181818" points="754.9106,354.6563,744.9106,358.6563,754.9106,362.6563,750.9106,358.6563" style="stroke:#181818;stroke-width:1;"/><line style="stroke:#181818;stroke-width:1;stroke-dasharray:2.0,2.0;" x1="748.9106" x2="926.7329" y1="358.6563" y2="358.6563"/><text fill="#000000" font-family="sans-serif" font-size="13" font-weight="bold" lengthAdjust="spacing" textLength="9.0454" x="760.9106" y="353.5903">5</text><text fill="#000000" font-family="sans-serif" font-size="13" lengthAdjust="spacing" textLength="85.4521" x="773.9561" y="353.5903">Auth success</text></g><g class="message" data-participant-1="CMS" data-participant-2="Charger"><polygon fill="#181818" points="395.3535,383.7891,385.3535,387.7891,395.3535,391.7891,391.3535,387.7891" style="stroke:#181818;stroke-width:1;"/><line style="stroke:#181818;stroke-width:1;stroke-dasharray:2.0,2.0;" x1="389.3535" x2="742.9106" y1="387.7891" y2="387.7891"/><text fill="#000000" font-family="sans-serif" font-size="13" font-weight="bold" lengthAdjust="spacing" textLength="9.0454" x="401.3535" y="382.7231">6</text><text fill="#000000" font-family="sans-serif" font-size="13" lengthAdjust="spacing" textLength="124.8267" x="414.3989" y="382.7231">Charging approved</text></g><rect fill="#EEEEEE" height="3" style="stroke:#EEEEEE;stroke-width:1;" width="1360.9585" x="0" y="416.3555"/><line style="stroke:#000000;stroke-width:1;" x1="0" x2="1360.9585" y1="416.3555" y2="416.3555"/><line style="stroke:#000000;stroke-width:1;" x1="0" x2="1360.9585" y1="419.3555" y2="419.3555"/><rect fill="#EEEEEE" height="23.1328" style="stroke:#000000;stroke-width:2;" width="246.1782" x="557.3901" y="405.7891"/><text fill="#000000" font-family="sans-serif" font-size="13" font-weight="bold" lengthAdjust="spacing" textLength="227.6523" x="563.3901" y="421.856">Station Communication (OCPP)</text><g class="message" data-participant-1="Charger" data-participant-2="CMS"><polygon fill="#181818" points="731.9106,456.0547,741.9106,460.0547,731.9106,464.0547,735.9106,460.0547" style="stroke:#181818;stroke-width:1;"/><line style="stroke:#181818;stroke-width:1;" x1="384.3535" x2="737.9106" y1="460.0547" y2="460.0547"/><text fill="#000000" font-family="sans-serif" font-size="13" font-weight="bold" lengthAdjust="spacing" textLength="9.0454" x="391.3535" y="454.9888">7</text><text fill="#000000" font-family="sans-serif" font-size="13" lengthAdjust="spacing" textLength="184.4185" x="404.3989" y="454.9888">OCPP start charging request</text></g><path d="M389,473.0547 L389,513.0547 L647,513.0547 L647,483.0547 L637,473.0547 L389,473.0547" fill="#FEFFDD" style="stroke:#181818;stroke-width:0.5;"/><path d="M637,473.0547 L637,483.0547 L647,483.0547 L637,473.0547" fill="#FEFFDD" style="stroke:#181818;stroke-width:0.5;"/><text fill="#000000" font-family="sans-serif" font-size="13" lengthAdjust="spacing" textLength="237.6689" x="395" y="490.1216">Uses OCPP protocol to communicate</text><text fill="#000000" font-family="sans-serif" font-size="13" lengthAdjust="spacing" textLength="229.4424" x="395" y="505.2544">with backend management system</text><rect fill="#EEEEEE" height="3" style="stroke:#EEEEEE;stroke-width:1;" width="1360.9585" x="0" y="538.8867"/><line style="stroke:#000000;stroke-width:1;" x1="0" x2="1360.9585" y1="538.8867" y2="538.8867"/><line style="stroke:#000000;stroke-width:1;" x1="0" x2="1360.9585" y1="541.8867" y2="541.8867"/><rect fill="#EEEEEE" height="23.1328" style="stroke:#000000;stroke-width:2;" width="168.4194" x="596.2695" y="528.3203"/><text fill="#000000" font-family="sans-serif" font-size="13" font-weight="bold" lengthAdjust="spacing" textLength="149.8936" x="602.2695" y="544.3872">Energy Optimization</text><g class="message" data-participant-1="CMS" data-participant-2="Energy"><polygon fill="#181818" points="1091.7642,578.5859,1101.7642,582.5859,1091.7642,586.5859,1095.7642,582.5859" style="stroke:#181818;stroke-width:1;"/><line style="stroke:#181818;stroke-width:1;" x1="743.9106" x2="1097.7642" y1="582.5859" y2="582.5859"/><text fill="#000000" font-family="sans-serif" font-size="13" font-weight="bold" lengthAdjust="spacing" textLength="9.0454" x="750.9106" y="577.52">8</text><text fill="#000000" font-family="sans-serif" font-size="13" lengthAdjust="spacing" textLength="201.7983" x="763.9561" y="577.52">Evaluate optimal charging rate</text></g><path d="M1108,595.5859 L1108,635.5859 L1327,635.5859 L1327,605.5859 L1317,595.5859 L1108,595.5859" fill="#FEFFDD" style="stroke:#181818;stroke-width:0.5;"/><path d="M1317,595.5859 L1317,605.5859 L1327,605.5859 L1317,595.5859" fill="#FEFFDD" style="stroke:#181818;stroke-width:0.5;"/><text fill="#000000" font-family="sans-serif" font-size="13" lengthAdjust="spacing" textLength="198.4849" x="1114" y="612.6528">Considers grid load, user plan,</text><text fill="#000000" font-family="sans-serif" font-size="13" lengthAdjust="spacing" textLength="172.104" x="1114" y="627.7856">charger type (AC/DC/MCS)</text><g class="message" data-participant-1="Energy" data-participant-2="CMS"><polygon fill="#181818" points="754.9106,657.9844,744.9106,661.9844,754.9106,665.9844,750.9106,661.9844" style="stroke:#181818;stroke-width:1;"/><line style="stroke:#181818;stroke-width:1;stroke-dasharray:2.0,2.0;" x1="748.9106" x2="1102.7642" y1="661.9844" y2="661.9844"/><text fill="#000000" font-family="sans-serif" font-size="13" font-weight="bold" lengthAdjust="spacing" textLength="9.0454" x="760.9106" y="656.9185">9</text><text fill="#000000" font-family="sans-serif" font-size="13" lengthAdjust="spacing" textLength="235.6758" x="773.9561" y="656.9185">Optimal charging rate {rate: 50kW}</text></g><rect fill="#EEEEEE" height="3" style="stroke:#EEEEEE;stroke-width:1;" width="1360.9585" x="0" y="690.5508"/><line style="stroke:#000000;stroke-width:1;" x1="0" x2="1360.9585" y1="690.5508" y2="690.5508"/><line style="stroke:#000000;stroke-width:1;" x1="0" x2="1360.9585" y1="693.5508" y2="693.5508"/><rect fill="#EEEEEE" height="23.1328" style="stroke:#000000;stroke-width:2;" width="134.0659" x="613.4463" y="679.9844"/><text fill="#000000" font-family="sans-serif" font-size="13" font-weight="bold" lengthAdjust="spacing" textLength="115.54" x="619.4463" y="696.0513">Charging Starts</text><g class="message" data-participant-1="CMS" data-participant-2="Charger"><polygon fill="#181818" points="395.3535,730.25,385.3535,734.25,395.3535,738.25,391.3535,734.25" style="stroke:#181818;stroke-width:1;"/><line style="stroke:#181818;stroke-width:1;" x1="389.3535" x2="742.9106" y1="734.25" y2="734.25"/><text fill="#000000" font-family="sans-serif" font-size="13" font-weight="bold" lengthAdjust="spacing" textLength="18.0908" x="401.3535" y="729.1841">10</text><text fill="#000000" font-family="sans-serif" font-size="13" lengthAdjust="spacing" textLength="313.4663" x="423.4443" y="729.1841">OCPP start charging configuration {rate: 50kW}</text></g><g class="message" data-participant-1="Charger" data-participant-2="Vehicle"><polygon fill="#181818" points="1311.3818,759.3828,1321.3818,763.3828,1311.3818,767.3828,1315.3818,763.3828" style="stroke:#181818;stroke-width:1;"/><line style="stroke:#181818;stroke-width:1;" x1="384.3535" x2="1317.3818" y1="763.3828" y2="763.3828"/><text fill="#000000" font-family="sans-serif" font-size="13" font-weight="bold" lengthAdjust="spacing" textLength="18.0908" x="391.3535" y="758.3169">11</text><text fill="#000000" font-family="sans-serif" font-size="13" lengthAdjust="spacing" textLength="315.0723" x="413.4443" y="758.3169">Start charging using configuration {rate: 50kW}</text></g><rect fill="#EEEEEE" height="3" style="stroke:#EEEEEE;stroke-width:1;" width="1360.9585" x="0" y="791.9492"/><line style="stroke:#000000;stroke-width:1;" x1="0" x2="1360.9585" y1="791.9492" y2="791.9492"/><line style="stroke:#000000;stroke-width:1;" x1="0" x2="1360.9585" y1="794.9492" y2="794.9492"/><rect fill="#EEEEEE" height="23.1328" style="stroke:#000000;stroke-width:2;" width="123.5796" x="618.6895" y="781.3828"/><text fill="#000000" font-family="sans-serif" font-size="13" font-weight="bold" lengthAdjust="spacing" textLength="105.0537" x="624.6895" y="797.4497">Status Update</text><g class="message" data-participant-1="CMS" data-participant-2="App"><polygon fill="#181818" points="273.6201,831.6484,263.6201,835.6484,273.6201,839.6484,269.6201,835.6484" style="stroke:#181818;stroke-width:1;"/><line style="stroke:#181818;stroke-width:1;" x1="267.6201" x2="742.9106" y1="835.6484" y2="835.6484"/><text fill="#000000" font-family="sans-serif" font-size="13" font-weight="bold" lengthAdjust="spacing" textLength="18.0908" x="279.6201" y="830.5825">12</text><text fill="#000000" font-family="sans-serif" font-size="13" lengthAdjust="spacing" textLength="191.7817" x="301.7109" y="830.5825">POST charging session status</text></g><g class="message" data-participant-1="App" data-participant-2="Driver"><polygon fill="#181818" points="40.54,860.7813,30.54,864.7813,40.54,868.7813,36.54,864.7813" style="stroke:#181818;stroke-width:1;"/><line style="stroke:#181818;stroke-width:1;" x1="34.54" x2="261.6201" y1="864.7813" y2="864.7813"/><text fill="#000000" font-family="sans-serif" font-size="13" font-weight="bold" lengthAdjust="spacing" textLength="18.0908" x="46.54" y="859.7153">13</text><text fill="#000000" font-family="sans-serif" font-size="13" lengthAdjust="spacing" textLength="186.9893" x="68.6309" y="859.7153">Charging in progress (50kW)</text></g><!--SRC=[XLHDZzem4BtxLupe1IJGzj9B92ejOGyhDGA9tVPiaY5O97Rg3rgwsl_UiPrFj5KlIV3CU_DcvXdkh9AkFg9cLjWA8JrpNGfPmW6D4Kh2inHMS4kVZF7SAWrRBQwKtt1jHIuQBYtCCdKKX7vicXbmuz_J-41h0rV82eV4T5I_smo4Z4jUOeq4EjoCnNe6dxw9ycmtbSD_S0wOI9iTfecFpfufAF9G6Z9Lk0gZJefCSvyawl9sJnbFMS4jFtA3dLgQnIR4jnk6iW1gXB7r6hxZMUGqZdtbofMGi5wpE3HOVUswJa8KhZ4rmEvqJb0qqQJR1KBUjixeE71c1-BR7LxkEJJ-T6Wil3c3-dcxZCZuoIdrHLrGlZF2Xo9qaf1wBKuty0Z8DHQUZbU6-IYikchXbt5vJZw9-75l_MvuqsXrnI8qs2uVKbNNJdOQvxjqlr_uThkfTZLy08ob_VGTTnqngMWEsZi3rActqgj14s5KrgfSLM0Lv7qzPBy4wJxo_E8NLWzkCy5jOOsUEkXjpR1hhAZ5dtuhxRHYD86dAw-StuhoURmQQVK5fq9R9wLA6b6WDb1gKK2bUB6C4sygBfUiNHFOMuCmVqmVjkb3bXuMWxvMMx-FtKV5uSq_4_Zo-VBZFRGqleZQcb4x_Uu-cdgkv4cKJiSPJ5X7IsjzdqJo0UtCVpWwSpW3hqtXXG-wWlE3jti-q_utcG3fBa6yB2FlqSqZ5vIQic7k2ot-0W00]--></g></svg>