<svg xmlns="http://www.w3.org/2000/svg" xmlns:xlink="http://www.w3.org/1999/xlink" contentStyleType="text/css" data-diagram-type="SEQUENCE" height="444px" preserveAspectRatio="none" style="width:891px;height:444px;background:#FFFFFF;" version="1.1" viewBox="0 0 891 444" width="891px" zoomAndPan="magnify"><title>Station Location Flow</title><defs/><g><text fill="#000000" font-family="sans-serif" font-size="14" font-weight="bold" lengthAdjust="spacing" textLength="171.3223" x="361.6006" y="27.9951">Station Location Flow</text><g><title>Driver</title><rect fill="#000000" fill-opacity="0.00000" height="245.0625" width="8" x="25.54" y="118.5938"/><line style="stroke:#181818;stroke-width:0.5;stroke-dasharray:5.0,5.0;" x1="29" x2="29" y1="118.5938" y2="363.6563"/></g><g><title>Mobile App</title><rect fill="#000000" fill-opacity="0.00000" height="245.0625" width="8" x="279.7515" y="118.5938"/><line style="stroke:#181818;stroke-width:0.5;stroke-dasharray:5.0,5.0;" x1="282.8892" x2="282.8892" y1="118.5938" y2="363.6563"/></g><g><title>Charging Management System</title><rect fill="#000000" fill-opacity="0.00000" height="245.0625" width="8" x="539.2061" y="118.5938"/><line style="stroke:#181818;stroke-width:0.5;stroke-dasharray:5.0,5.0;" x1="542.7813" x2="542.7813" y1="118.5938" y2="363.6563"/></g><g><title>Charger DB</title><rect fill="#000000" fill-opacity="0.00000" height="245.0625" width="8" x="842.9863" y="118.5938"/><line style="stroke:#181818;stroke-width:0.5;stroke-dasharray:5.0,5.0;" x1="846.4492" x2="846.4492" y1="118.5938" y2="363.6563"/></g><g class="participant participant-head" data-participant="Driver"><text fill="#000000" font-family="sans-serif" font-size="14" lengthAdjust="spacing" textLength="43.0801" x="5" y="115.292">Driver</text><ellipse cx="29.54" cy="50.7969" fill="#E2E2F0" rx="8" ry="8" style="stroke:#181818;stroke-width:0.5;"/><path d="M29.54,58.7969 L29.54,85.7969 M16.54,66.7969 L42.54,66.7969 M29.54,85.7969 L16.54,100.7969 M29.54,85.7969 L42.54,100.7969" fill="none" style="stroke:#181818;stroke-width:0.5;"/></g><g class="participant participant-tail" data-participant="Driver"><text fill="#000000" font-family="sans-serif" font-size="14" lengthAdjust="spacing" textLength="43.0801" x="5" y="375.6514">Driver</text><ellipse cx="29.54" cy="387.4531" fill="#E2E2F0" rx="8" ry="8" style="stroke:#181818;stroke-width:0.5;"/><path d="M29.54,395.4531 L29.54,422.4531 M16.54,403.4531 L42.54,403.4531 M29.54,422.4531 L16.54,437.4531 M29.54,422.4531 L42.54,437.4531" fill="none" style="stroke:#181818;stroke-width:0.5;"/></g><g class="participant participant-head" data-participant="App"><rect fill="#E2E2F0" height="30.2969" rx="2.5" ry="2.5" style="stroke:#181818;stroke-width:0.5;" width="91.7246" x="237.8892" y="87.2969"/><text fill="#000000" font-family="sans-serif" font-size="14" lengthAdjust="spacing" textLength="77.7246" x="244.8892" y="107.292">Mobile App</text></g><g class="participant participant-tail" data-participant="App"><rect fill="#E2E2F0" height="30.2969" rx="2.5" ry="2.5" style="stroke:#181818;stroke-width:0.5;" width="91.7246" x="237.8892" y="362.6563"/><text fill="#000000" font-family="sans-serif" font-size="14" lengthAdjust="spacing" textLength="77.7246" x="244.8892" y="382.6514">Mobile App</text></g><g class="participant participant-head" data-participant="CMS"><rect fill="#E2E2F0" height="30.2969" rx="2.5" ry="2.5" style="stroke:#181818;stroke-width:0.5;" width="230.8496" x="427.7813" y="87.2969"/><text fill="#000000" font-family="sans-serif" font-size="14" lengthAdjust="spacing" textLength="216.8496" x="434.7813" y="107.292">Charging Management System</text></g><g class="participant participant-tail" data-participant="CMS"><rect fill="#E2E2F0" height="30.2969" rx="2.5" ry="2.5" style="stroke:#181818;stroke-width:0.5;" width="230.8496" x="427.7813" y="362.6563"/><text fill="#000000" font-family="sans-serif" font-size="14" lengthAdjust="spacing" textLength="216.8496" x="434.7813" y="382.6514">Charging Management System</text></g><g class="participant participant-head" data-participant="DB"><text fill="#000000" font-family="sans-serif" font-size="14" lengthAdjust="spacing" textLength="81.0742" x="803.4492" y="115.292">Charger DB</text><path d="M828.9863,66.2969 C828.9863,56.2969 846.9863,56.2969 846.9863,56.2969 C846.9863,56.2969 864.9863,56.2969 864.9863,66.2969 L864.9863,92.2969 C864.9863,102.2969 846.9863,102.2969 846.9863,102.2969 C846.9863,102.2969 828.9863,102.2969 828.9863,92.2969 L828.9863,66.2969" fill="#E2E2F0" style="stroke:#181818;stroke-width:1.5;"/><path d="M828.9863,66.2969 C828.9863,76.2969 846.9863,76.2969 846.9863,76.2969 C846.9863,76.2969 864.9863,76.2969 864.9863,66.2969" fill="none" style="stroke:#181818;stroke-width:1.5;"/></g><g class="participant participant-tail" data-participant="DB"><text fill="#000000" font-family="sans-serif" font-size="14" lengthAdjust="spacing" textLength="81.0742" x="803.4492" y="375.6514">Charger DB</text><path d="M828.9863,388.9531 C828.9863,378.9531 846.9863,378.9531 846.9863,378.9531 C846.9863,378.9531 864.9863,378.9531 864.9863,388.9531 L864.9863,414.9531 C864.9863,424.9531 846.9863,424.9531 846.9863,424.9531 C846.9863,424.9531 828.9863,424.9531 828.9863,414.9531 L828.9863,388.9531" fill="#E2E2F0" style="stroke:#181818;stroke-width:1.5;"/><path d="M828.9863,388.9531 C828.9863,398.9531 846.9863,398.9531 846.9863,398.9531 C846.9863,398.9531 864.9863,398.9531 864.9863,388.9531" fill="none" style="stroke:#181818;stroke-width:1.5;"/></g><g class="message" data-participant-1="Driver" data-participant-2="App"><polygon fill="#181818" points="271.7515,145.7266,281.7515,149.7266,271.7515,153.7266,275.7515,149.7266" style="stroke:#181818;stroke-width:1;"/><line style="stroke:#181818;stroke-width:1;" x1="29.54" x2="277.7515" y1="149.7266" y2="149.7266"/><text fill="#000000" font-family="sans-serif" font-size="13" font-weight="bold" lengthAdjust="spacing" textLength="9.0454" x="36.54" y="144.6606">1</text><text fill="#000000" font-family="sans-serif" font-size="13" lengthAdjust="spacing" textLength="217.166" x="49.5854" y="144.6606">Open app and search for stations</text></g><g class="message" data-participant-1="App" data-participant-2="CMS"><polygon fill="#181818" points="531.2061,174.8594,541.2061,178.8594,531.2061,182.8594,535.2061,178.8594" style="stroke:#181818;stroke-width:1;"/><line style="stroke:#181818;stroke-width:1;" x1="283.7515" x2="537.2061" y1="178.8594" y2="178.8594"/><text fill="#000000" font-family="sans-serif" font-size="13" font-weight="bold" lengthAdjust="spacing" textLength="9.0454" x="290.7515" y="173.7935">2</text><text fill="#000000" font-family="sans-serif" font-size="13" lengthAdjust="spacing" textLength="221.0317" x="303.7969" y="173.7935">GET /stations?location={lat,long}</text></g><path d="M548,191.8594 L548,231.8594 L808,231.8594 L808,201.8594 L798,191.8594 L548,191.8594" fill="#FEFFDD" style="stroke:#181818;stroke-width:0.5;"/><path d="M798,191.8594 L798,201.8594 L808,201.8594 L798,191.8594" fill="#FEFFDD" style="stroke:#181818;stroke-width:0.5;"/><text fill="#000000" font-family="sans-serif" font-size="13" lengthAdjust="spacing" textLength="239.3638" x="554" y="208.9263">Receives request for nearby stations</text><text fill="#000000" font-family="sans-serif" font-size="13" lengthAdjust="spacing" textLength="187.0337" x="554" y="224.0591">with geolocation parameters</text><g class="message" data-participant-1="CMS" data-participant-2="DB"><polygon fill="#181818" points="834.9863,254.2578,844.9863,258.2578,834.9863,262.2578,838.9863,258.2578" style="stroke:#181818;stroke-width:1;"/><line style="stroke:#181818;stroke-width:1;" x1="543.2061" x2="840.9863" y1="258.2578" y2="258.2578"/><text fill="#000000" font-family="sans-serif" font-size="13" font-weight="bold" lengthAdjust="spacing" textLength="9.0454" x="550.2061" y="253.1919">3</text><text fill="#000000" font-family="sans-serif" font-size="13" lengthAdjust="spacing" textLength="266.7349" x="563.2515" y="253.1919">Query available chargers near {lat,long}</text></g><g class="message" data-participant-1="DB" data-participant-2="CMS"><polygon fill="#181818" points="554.2061,283.3906,544.2061,287.3906,554.2061,291.3906,550.2061,287.3906" style="stroke:#181818;stroke-width:1;"/><line style="stroke:#181818;stroke-width:1;stroke-dasharray:2.0,2.0;" x1="548.2061" x2="845.9863" y1="287.3906" y2="287.3906"/><text fill="#000000" font-family="sans-serif" font-size="13" font-weight="bold" lengthAdjust="spacing" textLength="9.0454" x="560.2061" y="282.3247">4</text><text fill="#000000" font-family="sans-serif" font-size="13" lengthAdjust="spacing" textLength="197.3931" x="573.2515" y="282.3247">Return charger list with status</text></g><g class="message" data-participant-1="CMS" data-participant-2="App"><polygon fill="#181818" points="294.7515,312.5234,284.7515,316.5234,294.7515,320.5234,290.7515,316.5234" style="stroke:#181818;stroke-width:1;"/><line style="stroke:#181818;stroke-width:1;stroke-dasharray:2.0,2.0;" x1="288.7515" x2="542.2061" y1="316.5234" y2="316.5234"/><text fill="#000000" font-family="sans-serif" font-size="13" font-weight="bold" lengthAdjust="spacing" textLength="9.0454" x="300.7515" y="311.4575">5</text><text fill="#000000" font-family="sans-serif" font-size="13" lengthAdjust="spacing" textLength="222.4092" x="313.7969" y="311.4575">Station list + real-time availability</text></g><g class="message" data-participant-1="App" data-participant-2="Driver"><polygon fill="#181818" points="40.54,341.6563,30.54,345.6563,40.54,349.6563,36.54,345.6563" style="stroke:#181818;stroke-width:1;"/><line style="stroke:#181818;stroke-width:1;" x1="34.54" x2="282.7515" y1="345.6563" y2="345.6563"/><text fill="#000000" font-family="sans-serif" font-size="13" font-weight="bold" lengthAdjust="spacing" textLength="9.0454" x="46.54" y="340.5903">6</text><text fill="#000000" font-family="sans-serif" font-size="13" lengthAdjust="spacing" textLength="206.5273" x="59.5854" y="340.5903">Display nearby stations on map</text></g><!--SRC=[NP7DJiCm48JlVefLhr1nZmI8DC252j7o0fjqcwpasCRUj8eGxyucgSNFAPPtFFFj10VnRkXhYaPOBC5UKDWxUF7DSdYo_cmCDk8ZL95FgWmOXHiEw0HMMr-pldi8OGMOfk_V-QR3sB9hOOiEM-f9B_TZ4kfd_MQxDmSKh37HHKmQLCx3gZHcoOJrtMHTm6iW1nW2e3j08enD1qT5ImjtCggQnEfRmFFZEzpaoRszh7JxQL6khNVjbt5U22AtdO0_pZ0xQaWJ4qJw62Z9xEuqg1v_Giui7RJaioNeojYJK4o656ooDKRj9fIgBE1je3W2df0jrbfNiooQPcVu1LILiCxuEv8Xkgm5oqep9qySGrhySp7vnysgAwL7knRkAOUoPHbpEqkf1LISWiNn_twWFZs6Rm00]--></g></svg>